<svg version="1.1" id="Layer_1" xmlns="http://www.w3.org/2000/svg" xmlns:xlink="http://www.w3.org/1999/xlink" x="0px" y="0px"
	 width="100%" viewBox="0 0 256 256" enable-background="new 0 0 256 256" xml:space="preserve">
<path fill="#000000" opacity="1.000000" stroke="none" 
	d="
M257.000000,87.000000 
	C257.000000,144.000000 257.000000,200.500000 257.000000,257.000000 
	C171.666672,257.000000 86.333336,257.000000 1.000000,257.000000 
	C1.000000,171.666672 1.000000,86.333336 1.000000,1.000000 
	C86.333336,1.000000 171.666672,1.000000 257.000000,1.000000 
	C257.000000,29.500000 257.000000,58.000000 257.000000,87.000000 
M102.998077,229.339615 
	C102.998077,223.402405 102.998077,217.465210 102.998077,210.998215 
	C105.539177,210.998215 107.332283,210.998291 109.125389,210.998215 
	C119.791893,210.997787 130.459564,210.905991 141.124344,211.041718 
	C145.400925,211.096146 147.084641,209.334930 147.067688,205.081268 
	C147.051178,200.937958 145.600128,198.916016 141.233337,198.964661 
	C130.401535,199.085327 119.567421,199.015778 108.734314,198.988617 
	C106.968979,198.984192 105.204079,198.806274 102.998116,198.684113 
	C102.998116,194.375610 102.663094,190.537079 103.053551,186.773819 
	C105.262909,165.479965 91.930138,152.791809 71.482399,154.942902 
	C67.574440,155.354034 63.586182,155.001877 59.487671,155.001877 
	C59.487671,137.340546 59.487671,120.331253 59.487671,102.998123 
	C66.130913,102.998123 72.287025,103.008461 78.443092,102.996010 
	C92.034134,102.968506 102.972847,91.968399 102.996223,78.306641 
	C103.006943,72.039726 102.998039,65.772781 102.998039,59.374252 
	C120.669151,59.374252 137.561432,59.374252 155.002197,59.374252 
	C155.002197,66.201584 154.973663,72.663414 155.008255,79.124916 
	C155.076019,91.779640 166.240616,102.957863 178.904846,102.987755 
	C196.237808,103.028664 213.570999,103.021980 230.904007,102.990112 
	C243.828583,102.966354 254.967926,91.797745 254.990524,78.845665 
	C255.020477,61.679314 255.015503,44.512844 254.992447,27.346470 
	C254.974609,14.061255 243.896118,3.024096 230.566788,3.007346 
	C213.567062,2.985983 196.567291,2.988328 179.567566,3.006503 
	C165.955200,3.021056 155.027267,14.025271 155.003891,27.709505 
	C154.993179,33.975388 155.002060,40.241302 155.002060,46.620041 
	C137.319168,46.620041 120.426819,46.620041 102.997993,46.620041 
	C102.997993,39.785027 103.026115,33.321823 102.992012,26.858948 
	C102.925308,14.218108 91.748505,3.042591 79.079201,3.012603 
	C61.746227,2.971575 44.413036,2.976832 27.080034,3.010717 
	C14.148742,3.035996 3.032199,14.213074 3.009182,27.197077 
	C2.980228,43.530113 3.621006,59.893692 2.819285,76.187332 
	C2.088839,91.032440 14.808530,104.483902 29.983704,103.080475 
	C35.515209,102.568909 41.133724,102.998123 46.525780,102.998123 
	C46.525780,120.874062 46.525780,137.767975 46.525780,155.002289 
	C39.733566,155.002289 33.412842,154.981232 27.092306,155.006714 
	C14.156430,155.058838 3.031501,166.207565 3.009415,179.184814 
	C2.980200,196.351181 2.982805,213.517639 3.008282,230.684006 
	C3.028005,243.973785 14.105096,254.977875 27.463863,254.993393 
	C44.296917,255.012939 61.130016,255.004669 77.963089,254.996109 
	C92.054718,254.988953 102.882034,244.293655 102.998077,229.339615 
M204.308807,235.000870 
	C205.205643,235.960892 206.792603,236.864746 206.876083,237.890945 
	C207.185730,241.696884 207.148651,245.550415 206.961426,249.372330 
	C206.744034,253.810226 208.903748,255.088135 213.015198,255.080811 
	C217.107147,255.073517 219.244415,253.834747 219.046921,249.381302 
	C218.836578,244.638107 218.999603,239.878342 218.999603,235.241730 
	C226.939056,234.279221 234.301926,236.170929 241.443344,232.370911 
	C248.720673,228.498550 252.791046,222.601685 254.763367,215.248138 
	C258.071930,202.912628 252.448624,192.332947 238.946945,184.122650 
	C243.951904,175.573578 244.768677,166.625870 240.775085,157.494583 
	C236.681229,148.133942 228.777496,143.955795 218.999405,142.555862 
	C218.999405,137.646439 218.872437,132.988480 219.035110,128.340637 
	C219.197784,123.692680 216.585449,122.927773 212.698563,122.928688 
	C208.769028,122.929619 206.830734,124.295792 206.964584,128.426575 
	C207.119003,133.191422 207.000473,137.965118 207.000473,142.689468 
	C201.356049,142.689468 196.293655,142.689468 190.999451,142.689468 
	C190.999451,137.737717 190.865143,133.088501 191.037567,128.450684 
	C191.207062,123.892044 188.772888,122.915527 184.808258,122.926842 
	C180.952194,122.937843 178.839066,124.109367 178.966965,128.316559 
	C179.112244,133.096176 179.000519,137.883606 179.000519,142.076660 
	C174.937210,144.886810 168.145248,139.429123 166.996658,147.493729 
	C165.481766,158.130432 174.286392,153.861557 178.636017,155.235275 
	C178.636017,178.118423 178.636017,200.510147 178.636017,222.023880 
	C174.705582,224.860825 168.168060,219.536758 167.074127,227.355484 
	C166.812866,229.222778 166.873291,232.521118 167.774643,232.918594 
	C171.184525,234.422195 175.001099,235.003479 179.000412,236.014542 
	C179.000412,240.253632 179.135574,244.901642 178.962051,249.538132 
	C178.791779,254.088364 181.207001,255.085709 185.180618,255.073669 
	C189.017197,255.062042 191.167419,253.948456 191.034195,249.716690 
	C190.883804,244.939056 190.999527,240.153030 190.999527,234.999847 
	C195.422058,234.999847 199.382065,234.999847 204.308807,235.000870 
z"/>
<path fill="#444B54" opacity="1.000000" stroke="none" 
	d="
M102.998055,229.813095 
	C102.882034,244.293655 92.054718,254.988953 77.963089,254.996109 
	C61.130016,255.004669 44.296917,255.012939 27.463863,254.993393 
	C14.105096,254.977875 3.028005,243.973785 3.008282,230.684006 
	C2.982805,213.517639 2.980200,196.351181 3.009415,179.184814 
	C3.031501,166.207565 14.156430,155.058838 27.092306,155.006714 
	C33.412842,154.981232 39.733566,155.002289 46.525780,155.002289 
	C46.525780,137.767975 46.525780,120.874062 46.525780,102.998123 
	C41.133724,102.998123 35.515209,102.568909 29.983704,103.080475 
	C14.808530,104.483902 2.088839,91.032440 2.819285,76.187332 
	C3.621006,59.893692 2.980228,43.530113 3.009182,27.197077 
	C3.032199,14.213074 14.148742,3.035996 27.080034,3.010717 
	C44.413036,2.976832 61.746227,2.971575 79.079201,3.012603 
	C91.748505,3.042591 102.925308,14.218108 102.992012,26.858948 
	C103.026115,33.321823 102.997993,39.785027 102.997993,46.620041 
	C120.426819,46.620041 137.319168,46.620041 155.002060,46.620041 
	C155.002060,40.241302 154.993179,33.975388 155.003891,27.709505 
	C155.027267,14.025271 165.955200,3.021056 179.567566,3.006503 
	C196.567291,2.988328 213.567062,2.985983 230.566788,3.007346 
	C243.896118,3.024096 254.974609,14.061255 254.992447,27.346470 
	C255.015503,44.512844 255.020477,61.679314 254.990524,78.845665 
	C254.967926,91.797745 243.828583,102.966354 230.904007,102.990112 
	C213.570999,103.021980 196.237808,103.028664 178.904846,102.987755 
	C166.240616,102.957863 155.076019,91.779640 155.008255,79.124916 
	C154.973663,72.663414 155.002197,66.201584 155.002197,59.374252 
	C137.561432,59.374252 120.669151,59.374252 102.998039,59.374252 
	C102.998039,65.772781 103.006943,72.039726 102.996223,78.306641 
	C102.972847,91.968399 92.034134,102.968506 78.443092,102.996010 
	C72.287025,103.008461 66.130913,102.998123 59.487671,102.998123 
	C59.487671,120.331253 59.487671,137.340546 59.487671,155.001877 
	C63.586182,155.001877 67.574440,155.354034 71.482399,154.942902 
	C91.930138,152.791809 105.262909,165.479965 103.053551,186.773819 
	C102.663094,190.537079 102.998116,194.375610 102.998116,198.684113 
	C105.204079,198.806274 106.968979,198.984192 108.734314,198.988617 
	C119.567421,199.015778 130.401535,199.085327 141.233337,198.964661 
	C145.600128,198.916016 147.051178,200.937958 147.067688,205.081268 
	C147.084641,209.334930 145.400925,211.096146 141.124344,211.041718 
	C130.459564,210.905991 119.791893,210.997787 109.125389,210.998215 
	C107.332283,210.998291 105.539177,210.998215 102.998077,210.998215 
	C102.998077,217.465210 102.998077,223.402405 102.998055,229.813095 
M15.248171,26.300020 
	C15.165995,42.792011 15.011729,59.284077 15.029328,75.775963 
	C15.039495,85.303368 20.747982,90.933708 30.327908,90.979393 
	C45.490726,91.051697 60.654465,91.058876 75.817177,90.976364 
	C85.321121,90.924652 90.934227,85.229317 90.979561,75.627975 
	C91.051147,60.465153 91.061127,45.301392 90.975449,30.138714 
	C90.921761,20.639088 85.217506,15.059914 75.588486,15.018216 
	C60.592236,14.953277 45.595409,14.970263 30.598999,15.013037 
	C22.561625,15.035961 18.363907,18.013161 15.248171,26.300020 
M178.307037,15.248333 
	C170.661407,17.915695 167.104019,22.096136 167.049561,29.251059 
	C166.929092,45.078152 166.906342,60.907810 167.056488,76.734398 
	C167.135452,85.057289 172.950378,90.865685 181.285416,90.944763 
	C197.112015,91.094933 212.942139,91.098732 228.768616,90.942070 
	C237.074890,90.859848 242.866379,85.020813 242.944504,76.677521 
	C243.092712,60.850903 243.101242,45.020741 242.940247,29.194368 
	C242.855652,20.879473 237.007690,15.107425 228.645248,15.052792 
	C212.152969,14.945045 195.659058,15.087350 178.307037,15.248333 
M87.629295,171.990692 
	C84.442810,168.383057 80.405228,166.955399 75.641708,166.976440 
	C60.501392,167.043350 45.360310,166.944870 30.220089,167.022003 
	C20.698971,167.070511 15.065303,172.736633 15.020363,182.289841 
	C14.949142,197.430115 14.947057,212.571228 15.021276,227.711487 
	C15.068083,237.259598 20.707605,242.927536 30.227091,242.977325 
	C45.367290,243.056519 60.508442,243.050446 75.648727,242.979935 
	C85.223274,242.935349 90.921600,237.322189 90.975327,227.832855 
	C91.061035,212.692719 91.166519,197.548416 90.866730,182.413757 
	C90.801521,179.121384 89.060715,175.862213 87.629295,171.990692 
z"/>
<path fill="#71C2FF" opacity="1.000000" stroke="none" 
	d="
M203.825439,235.000366 
	C199.382065,234.999847 195.422058,234.999847 190.999527,234.999847 
	C190.999527,240.153030 190.883804,244.939056 191.034195,249.716690 
	C191.167419,253.948456 189.017197,255.062042 185.180618,255.073669 
	C181.207001,255.085709 178.791779,254.088364 178.962051,249.538132 
	C179.135574,244.901642 179.000412,240.253632 179.000412,236.014542 
	C175.001099,235.003479 171.184525,234.422195 167.774643,232.918594 
	C166.873291,232.521118 166.812866,229.222778 167.074127,227.355484 
	C168.168060,219.536758 174.705582,224.860825 178.636017,222.023880 
	C178.636017,200.510147 178.636017,178.118423 178.636017,155.235275 
	C174.286392,153.861557 165.481766,158.130432 166.996658,147.493729 
	C168.145248,139.429123 174.937210,144.886810 179.000519,142.076660 
	C179.000519,137.883606 179.112244,133.096176 178.966965,128.316559 
	C178.839066,124.109367 180.952194,122.937843 184.808258,122.926842 
	C188.772888,122.915527 191.207062,123.892044 191.037567,128.450684 
	C190.865143,133.088501 190.999451,137.737717 190.999451,142.689468 
	C196.293655,142.689468 201.356049,142.689468 207.000473,142.689468 
	C207.000473,137.965118 207.119003,133.191422 206.964584,128.426575 
	C206.830734,124.295792 208.769028,122.929619 212.698563,122.928688 
	C216.585449,122.927773 219.197784,123.692680 219.035110,128.340637 
	C218.872437,132.988480 218.999405,137.646439 218.999405,142.555862 
	C228.777496,143.955795 236.681229,148.133942 240.775085,157.494583 
	C244.768677,166.625870 243.951904,175.573578 238.946945,184.122650 
	C252.448624,192.332947 258.071930,202.912628 254.763367,215.248138 
	C252.791046,222.601685 248.720673,228.498550 241.443344,232.370911 
	C234.301926,236.170929 226.939056,234.279221 218.999603,235.241730 
	C218.999603,239.878342 218.836578,244.638107 219.046921,249.381302 
	C219.244415,253.834747 217.107147,255.073517 213.015198,255.080811 
	C208.903748,255.088135 206.744034,253.810226 206.961426,249.372330 
	C207.148651,245.550415 207.185730,241.696884 206.876083,237.890945 
	C206.792603,236.864746 205.205643,235.960892 203.825439,235.000366 
M236.143524,220.934341 
	C241.481613,217.302856 243.970154,212.348511 242.519958,205.943726 
	C241.177826,200.016220 237.217834,195.648132 231.302231,195.382675 
	C218.084610,194.789566 204.822083,195.197235 191.441040,195.197235 
	C191.441040,204.651779 191.441040,213.657959 191.441040,222.948853 
	C204.501602,222.948853 217.123825,223.018021 229.743652,222.874771 
	C231.651031,222.853119 233.547180,221.842194 236.143524,220.934341 
M226.560898,179.077148 
	C234.285889,169.923904 230.884995,156.917297 219.724838,155.510330 
	C210.461578,154.342499 200.933990,155.271301 191.467926,155.271301 
	C191.467926,164.708176 191.467926,173.716003 191.467926,182.953110 
	C200.572845,182.953110 209.224289,183.220337 217.841995,182.798523 
	C220.608978,182.663086 223.286926,180.708588 226.560898,179.077148 
z"/>
<path fill="#FFFFFF" opacity="1.000000" stroke="none" 
	d="
M15.376433,25.900360 
	C18.363907,18.013161 22.561625,15.035961 30.598999,15.013037 
	C45.595409,14.970263 60.592236,14.953277 75.588486,15.018216 
	C85.217506,15.059914 90.921761,20.639088 90.975449,30.138714 
	C91.061127,45.301392 91.051147,60.465153 90.979561,75.627975 
	C90.934227,85.229317 85.321121,90.924652 75.817177,90.976364 
	C60.654465,91.058876 45.490726,91.051697 30.327908,90.979393 
	C20.747982,90.933708 15.039495,85.303368 15.029328,75.775963 
	C15.011729,59.284077 15.165995,42.792011 15.376433,25.900360 
z"/>
<path fill="#FFFFFF" opacity="1.000000" stroke="none" 
	d="
M178.736420,15.187287 
	C195.659058,15.087350 212.152969,14.945045 228.645248,15.052792 
	C237.007690,15.107425 242.855652,20.879473 242.940247,29.194368 
	C243.101242,45.020741 243.092712,60.850903 242.944504,76.677521 
	C242.866379,85.020813 237.074890,90.859848 228.768616,90.942070 
	C212.942139,91.098732 197.112015,91.094933 181.285416,90.944763 
	C172.950378,90.865685 167.135452,85.057289 167.056488,76.734398 
	C166.906342,60.907810 166.929092,45.078152 167.049561,29.251059 
	C167.104019,22.096136 170.661407,17.915695 178.736420,15.187287 
z"/>
<path fill="#FFFFFF" opacity="1.000000" stroke="none" 
	d="
M87.860474,172.289215 
	C89.060715,175.862213 90.801521,179.121384 90.866730,182.413757 
	C91.166519,197.548416 91.061035,212.692719 90.975327,227.832855 
	C90.921600,237.322189 85.223274,242.935349 75.648727,242.979935 
	C60.508442,243.050446 45.367290,243.056519 30.227091,242.977325 
	C20.707605,242.927536 15.068083,237.259598 15.021276,227.711487 
	C14.947057,212.571228 14.949142,197.430115 15.020363,182.289841 
	C15.065303,172.736633 20.698971,167.070511 30.220089,167.022003 
	C45.360310,166.944870 60.501392,167.043350 75.641708,166.976440 
	C80.405228,166.955399 84.442810,168.383057 87.860474,172.289215 
z"/>
<path fill="#FFFFFF" opacity="1.000000" stroke="none" 
	d="
M235.796021,221.111603 
	C233.547180,221.842194 231.651031,222.853119 229.743652,222.874771 
	C217.123825,223.018021 204.501602,222.948853 191.441040,222.948853 
	C191.441040,213.657959 191.441040,204.651779 191.441040,195.197235 
	C204.822083,195.197235 218.084610,194.789566 231.302231,195.382675 
	C237.217834,195.648132 241.177826,200.016220 242.519958,205.943726 
	C243.970154,212.348511 241.481613,217.302856 235.796021,221.111603 
z"/>
<path fill="#FEFFFF" opacity="1.000000" stroke="none" 
	d="
M226.283249,179.331741 
	C223.286926,180.708588 220.608978,182.663086 217.841995,182.798523 
	C209.224289,183.220337 200.572845,182.953110 191.467926,182.953110 
	C191.467926,173.716003 191.467926,164.708176 191.467926,155.271301 
	C200.933990,155.271301 210.461578,154.342499 219.724838,155.510330 
	C230.884995,156.917297 234.285889,169.923904 226.283249,179.331741 
z"/>
</svg>